HIERARCHY
ROOT SimulationBone
{
	OFFSET 0.000000 0.000000 0.000000
	CHANNELS 6 Xposition Yposition Zposition Zrotation Yrotation Xrotation 
	JOINT Hips
	{
		OFFSET 0.000000 0.000000 0.000000
		CHANNELS 6 Xposition Yposition Zposition Zrotation Yrotation Xrotation 
		JOINT RightUpLeg
		{
			OFFSET 0.103462 1.857825 10.548491
			CHANNELS 3 Zrotation Yrotation Xrotation
			JOINT RightLeg
			{
				OFFSET 43.500000 -0.000038 -0.000006
				CHANNELS 3 Zrotation Yrotation Xrotation
				JOINT RightFoot
				{
					OFFSET 42.372196 0.000034 -0.000012
					CHANNELS 3 Zrotation Yrotation Xrotation
					JOINT RightToe
					{
						OFFSET 17.299999 -0.000001 -0.000008
						CHANNELS 3 Zrotation Yrotation Xrotation
						End Site
						{
							OFFSET 0.000000 0.000000 0.000000
						}
					}
				}
			}
		}
		JOINT LeftUpLeg
		{
			OFFSET 0.103456 1.857821 -10.548490
			CHANNELS 3 Zrotation Yrotation Xrotation
			JOINT LeftLeg
			{
				OFFSET 43.500038 -0.000011 0.000011
				CHANNELS 3 Zrotation Yrotation Xrotation
				JOINT LeftFoot
				{
					OFFSET 42.372265 0.000004 0.000029
					CHANNELS 3 Zrotation Yrotation Xrotation
					JOINT LeftToe
					{
						OFFSET 17.299988 -0.000007 0.000004
						CHANNELS 3 Zrotation Yrotation Xrotation
						End Site
						{
							OFFSET 0.000000 0.000000 0.000000
						}
					}
				}
			}
		}
		JOINT Spine
		{
			OFFSET 6.901963 -2.603729 -0.000012
			CHANNELS 3 Zrotation Yrotation Xrotation
			JOINT Spine1
			{
				OFFSET 12.588106 0.000010 0.000003
				CHANNELS 3 Zrotation Yrotation Xrotation
				JOINT Spine2
				{
					OFFSET 12.343199 -0.000001 -0.000002
					CHANNELS 3 Zrotation Yrotation Xrotation
					JOINT Neck
					{
						OFFSET 25.832895 -0.000006 0.000023
						CHANNELS 3 Zrotation Yrotation Xrotation
						JOINT Head
						{
							OFFSET 11.766605 0.000011 -0.000027
							CHANNELS 3 Zrotation Yrotation Xrotation
							End Site
							{
								OFFSET 0.000000 0.000000 0.000000
							}
						}
					}
					JOINT RightShoulder
					{
						OFFSET 19.745903 -1.480368 6.000127
						CHANNELS 3 Zrotation Yrotation Xrotation
						JOINT RightArm
						{
							OFFSET 11.284108 0.000010 -0.000010
							CHANNELS 3 Zrotation Yrotation Xrotation
							JOINT RightForeArm
							{
								OFFSET 33.000069 0.000000 0.000030
								CHANNELS 3 Zrotation Yrotation Xrotation
								JOINT RightHand
								{
									OFFSET 25.199997 0.000019 0.000001
									CHANNELS 3 Zrotation Yrotation Xrotation
									End Site
									{
										OFFSET 0.000000 0.000000 0.000000
									}
								}
							}
						}
					}
					JOINT LeftShoulder
					{
						OFFSET 19.746101 -1.480371 -6.000072
						CHANNELS 3 Zrotation Yrotation Xrotation
						JOINT LeftArm
						{
							OFFSET 11.284140 -0.000007 -0.000004
							CHANNELS 3 Zrotation Yrotation Xrotation
							JOINT LeftForeArm
							{
								OFFSET 33.000080 0.000016 -0.000002
								CHANNELS 3 Zrotation Yrotation Xrotation
								JOINT LeftHand
								{
									OFFSET 25.199766 0.000146 0.000422
									CHANNELS 3 Zrotation Yrotation Xrotation
									End Site
									{
										OFFSET 0.000000 0.000000 0.000000
									}
								}
							}
						}
					}
				}
			}
		}
	}
}
MOTION
Frames: 5
Frame Time: 0.016667
355.416819 0.000000 -96.200620 180.000000 -82.863762 180.000000 1.191219 84.400459 1.057637 97.998897 2.070148 178.535014 152.754530 2.062097 169.564009 -26.546538 -0.713802 -4.991073 65.604157 6.669909 7.880709 21.454555 0.003109 0.000018 -154.894975 -7.787895 -175.791256 -22.206188 2.930607 1.090120 80.585651 -2.114355 -5.200164 21.454543 -0.003087 0.000000 9.496251 -0.037373 2.482825 8.973940 -0.267028 4.955195 8.657134 -0.237267 4.956699 7.631194 -3.170720 3.697660 -6.733133 -11.165184 6.440978 -157.351971 -68.240806 -24.744115 3.404882 59.190813 31.232081 -31.172139 -15.036871 1.281585 10.414206 -4.615715 9.036552 167.262876 80.282658 -11.355019 -39.194046 -48.019463 2.588135 -40.340698 17.170259 -1.608364 6.270768 8.213211 -34.494063 
354.975778 0.000000 -94.229056 180.000000 -82.936735 180.000000 1.170817 84.299228 0.954511 97.804364 1.418527 178.028138 152.436121 2.417155 170.838434 -28.965213 -1.443233 -6.021127 65.834053 7.434678 8.005799 21.454557 0.003111 0.000019 -155.557680 -6.808536 -174.009027 -25.228516 2.208946 0.029230 78.409042 -1.369343 -4.823741 21.454547 -0.003086 -0.000001 9.450830 -0.310108 2.442875 8.871985 -0.806432 4.854834 8.555090 -0.777270 4.859590 7.489455 -3.378834 4.022973 -6.908165 -11.362398 6.819675 -156.626124 -68.060161 -25.498222 4.890992 58.971171 31.908639 -31.697470 -15.187837 1.302179 10.554013 -4.463958 7.888519 167.033494 79.844076 -11.603650 -38.968263 -49.514840 2.031347 -37.634533 16.886893 -1.522820 7.086847 8.356341 -31.801570 
354.533801 0.000000 -92.270606 180.000000 -83.020284 180.000000 1.134892 84.183731 0.847977 97.707071 0.718251 177.798886 152.059804 2.719105 171.553752 -31.923354 -2.137603 -6.642870 67.593805 7.603352 7.620191 21.454560 0.003115 0.000019 -156.664254 -5.844099 -172.145083 -29.146428 1.354397 -0.938945 75.995361 -0.539775 -4.030650 21.454555 -0.003090 -0.000001 9.436760 -0.570460 2.338588 8.834656 -1.317627 4.627039 8.517590 -1.289834 4.634885 7.372775 -3.583261 4.270581 -7.084261 -11.529878 7.112153 -156.385130 -67.965010 -25.749409 5.890175 58.738109 32.299209 -31.837512 -15.265171 1.309931 10.725478 -3.909699 6.858141 167.502930 79.544712 -11.138172 -38.924386 -51.173081 1.772171 -35.079861 16.591756 -1.439866 8.382286 8.283162 -29.329005 
354.094101 0.000000 -90.326999 180.000000 -83.111399 180.000000 1.099804 84.085007 0.775531 97.662754 0.133755 177.781513 151.858034 2.762993 170.322945 -34.853228 -2.130894 -6.118177 70.005732 7.089324 7.791440 21.454559 0.003114 0.000019 -158.273873 -5.037749 -171.021570 -33.842177 0.759647 -1.324784 73.023222 0.021454 -2.850772 21.454558 -0.003094 -0.000001 9.430143 -0.780504 2.200164 8.815755 -1.726172 4.334894 8.498501 -1.700130 4.345211 7.551575 -3.887820 4.407299 -7.348369 -11.714460 7.307208 -156.809180 -67.998307 -25.310175 6.463976 58.581652 32.385725 -31.491880 -15.326332 1.307069 10.898704 -3.081455 6.286431 167.532318 79.424542 -11.112687 -38.744969 -53.044773 2.133867 -32.898802 16.133363 -1.360610 9.877772 8.037352 -27.980544 
353.657201 0.000000 -88.401333 180.000000 -83.204423 180.000000 1.053869 84.064743 0.685508 97.633102 -0.429510 177.805769 152.006323 2.814094 168.543947 -37.177613 -1.857035 -5.279287 72.360772 6.399725 8.166546 21.454557 0.003109 0.000018 -160.376721 -4.067092 -170.241359 -39.323816 0.380620 -1.468388 70.107970 0.725830 -0.923763 21.454557 -0.003095 0.000001 9.423892 -0.970007 2.049580 8.799643 -2.092870 4.020069 8.482187 -2.068710 4.032605 7.867714 -4.153108 4.505510 -7.528692 -11.940970 7.476852 -157.532698 -68.164588 -24.558707 6.635914 58.545279 32.144925 -30.865361 -15.296062 1.292020 11.097002 -2.345911 6.235377 167.163292 79.387010 -11.488694 -38.326096 -54.999905 2.787777 -31.070335 15.544097 -1.285738 11.340996 7.553511 -28.077008 
